<svg width="467" height="35" viewBox="0 0 467 35" fill="none" xmlns="http://www.w3.org/2000/svg">
<path d="M14.9785 20.4082C14.9785 19.2832 14.5801 18.416 13.7832 17.8066C12.998 17.1973 11.5742 16.582 9.51172 15.9609C7.44922 15.3398 5.80859 14.6484 4.58984 13.8867C2.25781 12.4219 1.0918 10.5117 1.0918 8.15625C1.0918 6.09375 1.92969 4.39453 3.60547 3.05859C5.29297 1.72266 7.47852 1.05469 10.1621 1.05469C11.9434 1.05469 13.5312 1.38281 14.9258 2.03906C16.3203 2.69531 17.416 3.63281 18.2129 4.85156C19.0098 6.05859 19.4082 7.40039 19.4082 8.87695H14.9785C14.9785 7.54102 14.5566 6.49805 13.7129 5.74805C12.8809 4.98633 11.6855 4.60547 10.127 4.60547C8.67383 4.60547 7.54297 4.91602 6.73438 5.53711C5.9375 6.1582 5.53906 7.02539 5.53906 8.13867C5.53906 9.07617 5.97266 9.86133 6.83984 10.4941C7.70703 11.1152 9.13672 11.7246 11.1289 12.3223C13.1211 12.9082 14.7207 13.582 15.9277 14.3438C17.1348 15.0938 18.0195 15.9609 18.582 16.9453C19.1445 17.918 19.4258 19.0605 19.4258 20.373C19.4258 22.5059 18.6055 24.2051 16.9648 25.4707C15.3359 26.7246 13.1211 27.3516 10.3203 27.3516C8.46875 27.3516 6.76367 27.0117 5.20508 26.332C3.6582 25.6406 2.45117 24.6914 1.58398 23.4844C0.728516 22.2773 0.300781 20.8711 0.300781 19.2656H4.74805C4.74805 20.7188 5.22852 21.8438 6.18945 22.6406C7.15039 23.4375 8.52734 23.8359 10.3203 23.8359C11.8672 23.8359 13.0273 23.5254 13.8008 22.9043C14.5859 22.2715 14.9785 21.4395 14.9785 20.4082ZM23.9152 17.3145C23.9152 15.4512 24.2844 13.7754 25.0227 12.2871C25.7609 10.7871 26.798 9.63867 28.134 8.8418C29.4699 8.0332 31.0051 7.62891 32.7395 7.62891C35.3059 7.62891 37.3859 8.45508 38.9797 10.1074C40.5852 11.7598 41.4523 13.9512 41.5812 16.6816L41.5988 17.6836C41.5988 19.5586 41.2355 21.2344 40.509 22.7109C39.7941 24.1875 38.7629 25.3301 37.4152 26.1387C36.0793 26.9473 34.5324 27.3516 32.7746 27.3516C30.091 27.3516 27.9406 26.4609 26.3234 24.6797C24.718 22.8867 23.9152 20.502 23.9152 17.5254V17.3145ZM28.1867 17.6836C28.1867 19.6406 28.591 21.1758 29.3996 22.2891C30.2082 23.3906 31.3332 23.9414 32.7746 23.9414C34.216 23.9414 35.3352 23.3789 36.132 22.2539C36.9406 21.1289 37.3449 19.4824 37.3449 17.3145C37.3449 15.3926 36.9289 13.8691 36.0969 12.7441C35.2766 11.6191 34.1574 11.0566 32.7395 11.0566C31.3449 11.0566 30.2375 11.6133 29.4172 12.7266C28.5969 13.8281 28.1867 15.4805 28.1867 17.6836ZM58.5336 25.1367C57.2797 26.6133 55.4984 27.3516 53.1898 27.3516C51.1273 27.3516 49.5629 26.748 48.4965 25.541C47.4418 24.334 46.9145 22.5879 46.9145 20.3027V7.98047H51.1859V20.25C51.1859 22.6641 52.1879 23.8711 54.1918 23.8711C56.266 23.8711 57.6664 23.127 58.393 21.6387V7.98047H62.6645V27H58.6391L58.5336 25.1367ZM74.1676 3.35742V7.98047H77.525V11.1445H74.1676V21.7617C74.1676 22.4883 74.3082 23.0156 74.5895 23.3438C74.8824 23.6602 75.398 23.8184 76.1363 23.8184C76.6285 23.8184 77.1266 23.7598 77.6305 23.6426V26.9473C76.6578 27.2168 75.7203 27.3516 74.818 27.3516C71.5367 27.3516 69.8961 25.541 69.8961 21.9199V11.1445H66.7672V7.98047H69.8961V3.35742H74.1676ZM86.8133 10.0547C88.2078 8.4375 89.9715 7.62891 92.1043 7.62891C96.159 7.62891 98.2156 9.94336 98.2742 14.5723V27H94.0027V14.7305C94.0027 13.418 93.7156 12.4922 93.1414 11.9531C92.5789 11.4023 91.7469 11.127 90.6453 11.127C88.9344 11.127 87.657 11.8887 86.8133 13.4121V27H82.5418V0H86.8133V10.0547ZM128.962 20.4082C128.962 19.2832 128.564 18.416 127.767 17.8066C126.982 17.1973 125.558 16.582 123.495 15.9609C121.433 15.3398 119.792 14.6484 118.573 13.8867C116.241 12.4219 115.075 10.5117 115.075 8.15625C115.075 6.09375 115.913 4.39453 117.589 3.05859C119.277 1.72266 121.462 1.05469 124.146 1.05469C125.927 1.05469 127.515 1.38281 128.909 2.03906C130.304 2.69531 131.4 3.63281 132.196 4.85156C132.993 6.05859 133.392 7.40039 133.392 8.87695H128.962C128.962 7.54102 128.54 6.49805 127.696 5.74805C126.864 4.98633 125.669 4.60547 124.111 4.60547C122.657 4.60547 121.527 4.91602 120.718 5.53711C119.921 6.1582 119.523 7.02539 119.523 8.13867C119.523 9.07617 119.956 9.86133 120.823 10.4941C121.691 11.1152 123.12 11.7246 125.113 12.3223C127.105 12.9082 128.704 13.582 129.911 14.3438C131.118 15.0938 132.003 15.9609 132.566 16.9453C133.128 17.918 133.409 19.0605 133.409 20.373C133.409 22.5059 132.589 24.2051 130.948 25.4707C129.32 26.7246 127.105 27.3516 124.304 27.3516C122.452 27.3516 120.747 27.0117 119.189 26.332C117.642 25.6406 116.435 24.6914 115.568 23.4844C114.712 22.2773 114.284 20.8711 114.284 19.2656H118.732C118.732 20.7188 119.212 21.8438 120.173 22.6406C121.134 23.4375 122.511 23.8359 124.304 23.8359C125.851 23.8359 127.011 23.5254 127.784 22.9043C128.57 22.2715 128.962 21.4395 128.962 20.4082ZM137.899 17.3145C137.899 15.4512 138.268 13.7754 139.006 12.2871C139.745 10.7871 140.782 9.63867 142.118 8.8418C143.454 8.0332 144.989 7.62891 146.723 7.62891C149.289 7.62891 151.37 8.45508 152.963 10.1074C154.569 11.7598 155.436 13.9512 155.565 16.6816L155.582 17.6836C155.582 19.5586 155.219 21.2344 154.493 22.7109C153.778 24.1875 152.746 25.3301 151.399 26.1387C150.063 26.9473 148.516 27.3516 146.758 27.3516C144.075 27.3516 141.924 26.4609 140.307 24.6797C138.702 22.8867 137.899 20.502 137.899 17.5254V17.3145ZM142.17 17.6836C142.17 19.6406 142.575 21.1758 143.383 22.2891C144.192 23.3906 145.317 23.9414 146.758 23.9414C148.2 23.9414 149.319 23.3789 150.116 22.2539C150.924 21.1289 151.329 19.4824 151.329 17.3145C151.329 15.3926 150.913 13.8691 150.08 12.7441C149.26 11.6191 148.141 11.0566 146.723 11.0566C145.329 11.0566 144.221 11.6133 143.401 12.7266C142.58 13.8281 142.17 15.4805 142.17 17.6836ZM172.517 25.1367C171.263 26.6133 169.482 27.3516 167.173 27.3516C165.111 27.3516 163.546 26.748 162.48 25.541C161.425 24.334 160.898 22.5879 160.898 20.3027V7.98047H165.17V20.25C165.17 22.6641 166.171 23.8711 168.175 23.8711C170.25 23.8711 171.65 23.127 172.377 21.6387V7.98047H176.648V27H172.623L172.517 25.1367ZM186.762 7.98047L186.886 10.1777C188.292 8.47852 190.137 7.62891 192.423 7.62891C196.384 7.62891 198.399 9.89648 198.47 14.4316V27H194.198V14.6777C194.198 13.4707 193.934 12.5801 193.407 12.0059C192.891 11.4199 192.042 11.127 190.858 11.127C189.136 11.127 187.852 11.9062 187.009 13.4648V27H182.737V7.98047H186.762ZM203.838 17.3496C203.838 14.4199 204.518 12.0703 205.877 10.3008C207.236 8.51953 209.059 7.62891 211.344 7.62891C213.359 7.62891 214.988 8.33203 216.23 9.73828V0H220.502V27H216.635L216.424 25.0312C215.146 26.5781 213.441 27.3516 211.309 27.3516C209.082 27.3516 207.277 26.4551 205.895 24.6621C204.523 22.8691 203.838 20.4316 203.838 17.3496ZM208.109 17.7188C208.109 19.6523 208.479 21.1641 209.217 22.2539C209.967 23.332 211.027 23.8711 212.398 23.8711C214.145 23.8711 215.422 23.0918 216.23 21.5332V13.4121C215.445 11.8887 214.18 11.127 212.434 11.127C211.051 11.127 209.984 11.6777 209.234 12.7793C208.484 13.8691 208.109 15.5156 208.109 17.7188ZM257.553 23.6777C256.627 24.8848 255.344 25.7988 253.704 26.4199C252.063 27.041 250.2 27.3516 248.114 27.3516C245.969 27.3516 244.071 26.8652 242.418 25.8926C240.766 24.9199 239.489 23.5312 238.586 21.7266C237.696 19.9102 237.233 17.7949 237.198 15.3809V13.377C237.198 9.50977 238.123 6.49219 239.975 4.32422C241.827 2.14453 244.411 1.05469 247.727 1.05469C250.575 1.05469 252.836 1.75781 254.512 3.16406C256.188 4.57031 257.196 6.59766 257.536 9.24609H253.176C252.684 6.16406 250.897 4.62305 247.815 4.62305C245.823 4.62305 244.305 5.34375 243.262 6.78516C242.231 8.21484 241.698 10.3184 241.663 13.0957V15.0645C241.663 17.8301 242.243 19.9805 243.403 21.5156C244.575 23.0391 246.198 23.8008 248.272 23.8008C250.545 23.8008 252.163 23.2852 253.123 22.2539V17.2441H247.85V13.8691H257.553V23.6777ZM275.349 25.1367C274.095 26.6133 272.314 27.3516 270.005 27.3516C267.943 27.3516 266.379 26.748 265.312 25.541C264.257 24.334 263.73 22.5879 263.73 20.3027V7.98047H268.002V20.25C268.002 22.6641 269.004 23.8711 271.007 23.8711C273.082 23.8711 274.482 23.127 275.209 21.6387V7.98047H279.48V27H275.455L275.349 25.1367ZM290.175 27H285.903V7.98047H290.175V27ZM285.639 3.04102C285.639 2.38477 285.845 1.83984 286.255 1.40625C286.677 0.972656 287.274 0.755859 288.048 0.755859C288.821 0.755859 289.419 0.972656 289.841 1.40625C290.263 1.83984 290.473 2.38477 290.473 3.04102C290.473 3.68555 290.263 4.22461 289.841 4.6582C289.419 5.08008 288.821 5.29102 288.048 5.29102C287.274 5.29102 286.677 5.08008 286.255 4.6582C285.845 4.22461 285.639 3.68555 285.639 3.04102ZM301.994 3.35742V7.98047H305.352V11.1445H301.994V21.7617C301.994 22.4883 302.135 23.0156 302.416 23.3438C302.709 23.6602 303.225 23.8184 303.963 23.8184C304.455 23.8184 304.953 23.7598 305.457 23.6426V26.9473C304.484 27.2168 303.547 27.3516 302.645 27.3516C299.363 27.3516 297.723 25.541 297.723 21.9199V11.1445H294.594V7.98047H297.723V3.35742H301.994ZM321.794 27C321.607 26.6367 321.443 26.0449 321.302 25.2246C319.943 26.6426 318.279 27.3516 316.31 27.3516C314.4 27.3516 312.841 26.8066 311.634 25.7168C310.427 24.627 309.823 23.2793 309.823 21.6738C309.823 19.6465 310.573 18.0938 312.073 17.0156C313.585 15.9258 315.741 15.3809 318.542 15.3809H321.161V14.1328C321.161 13.1484 320.886 12.3633 320.335 11.7773C319.784 11.1797 318.946 10.8809 317.821 10.8809C316.849 10.8809 316.052 11.127 315.431 11.6191C314.81 12.0996 314.499 12.7148 314.499 13.4648H310.228C310.228 12.4219 310.573 11.4492 311.265 10.5469C311.956 9.63281 312.894 8.91797 314.077 8.40234C315.273 7.88672 316.603 7.62891 318.068 7.62891C320.294 7.62891 322.07 8.19141 323.394 9.31641C324.718 10.4297 325.398 12 325.433 14.0273V22.6055C325.433 24.3164 325.673 25.6816 326.154 26.7012V27H321.794ZM317.101 23.9238C317.945 23.9238 318.736 23.7188 319.474 23.3086C320.224 22.8984 320.786 22.3477 321.161 21.6562V18.0703H318.859C317.277 18.0703 316.087 18.3457 315.29 18.8965C314.493 19.4473 314.095 20.2266 314.095 21.2344C314.095 22.0547 314.364 22.7109 314.904 23.2031C315.454 23.6836 316.187 23.9238 317.101 23.9238ZM341.664 11.8828C341.102 11.7891 340.522 11.7422 339.924 11.7422C337.967 11.7422 336.649 12.4922 335.969 13.9922V27H331.698V7.98047H335.776L335.881 10.1074C336.913 8.45508 338.342 7.62891 340.17 7.62891C340.78 7.62891 341.284 7.71094 341.682 7.875L341.664 11.8828ZM366.745 17.1387H361.788V27H357.341V1.40625H366.341C369.294 1.40625 371.573 2.06836 373.179 3.39258C374.784 4.7168 375.587 6.63281 375.587 9.14062C375.587 10.8516 375.171 12.2871 374.339 13.4473C373.518 14.5957 372.37 15.4805 370.893 16.1016L376.641 26.7715V27H371.878L366.745 17.1387ZM361.788 13.5703H366.358C367.858 13.5703 369.03 13.1953 369.874 12.4453C370.718 11.6836 371.139 10.6465 371.139 9.33398C371.139 7.96289 370.747 6.90234 369.962 6.15234C369.188 5.40234 368.028 5.01562 366.481 4.99219H361.788V13.5703ZM389.568 27.3516C386.861 27.3516 384.664 26.502 382.977 24.8027C381.301 23.0918 380.463 20.8184 380.463 17.9824V17.4551C380.463 15.5566 380.826 13.8633 381.553 12.375C382.291 10.875 383.322 9.70898 384.646 8.87695C385.971 8.04492 387.447 7.62891 389.076 7.62891C391.666 7.62891 393.664 8.45508 395.07 10.1074C396.488 11.7598 397.197 14.0977 397.197 17.1211V18.8438H384.77C384.898 20.4141 385.42 21.6562 386.334 22.5703C387.26 23.4844 388.42 23.9414 389.814 23.9414C391.771 23.9414 393.365 23.1504 394.596 21.5684L396.898 23.7656C396.137 24.9023 395.117 25.7871 393.84 26.4199C392.574 27.041 391.15 27.3516 389.568 27.3516ZM389.059 11.0566C387.887 11.0566 386.938 11.4668 386.211 12.2871C385.496 13.1074 385.039 14.25 384.84 15.7148H392.979V15.3984C392.885 13.9688 392.504 12.8906 391.836 12.1641C391.168 11.4258 390.242 11.0566 389.059 11.0566ZM418.984 17.6836C418.984 20.625 418.316 22.9746 416.98 24.7324C415.644 26.4785 413.851 27.3516 411.601 27.3516C409.515 27.3516 407.845 26.666 406.591 25.2949V34.3125H402.32V7.98047H406.257L406.433 9.91406C407.687 8.39062 409.392 7.62891 411.548 7.62891C413.868 7.62891 415.685 8.49609 416.997 10.2305C418.321 11.9531 418.984 14.3496 418.984 17.4199V17.6836ZM414.73 17.3145C414.73 15.416 414.349 13.9102 413.587 12.7969C412.837 11.6836 411.759 11.127 410.353 11.127C408.607 11.127 407.353 11.8477 406.591 13.2891V21.7266C407.364 23.2031 408.63 23.9414 410.388 23.9414C411.747 23.9414 412.808 23.3965 413.57 22.3066C414.343 21.2051 414.73 19.541 414.73 17.3145ZM435.778 27C435.59 26.6367 435.426 26.0449 435.286 25.2246C433.926 26.6426 432.262 27.3516 430.293 27.3516C428.383 27.3516 426.825 26.8066 425.618 25.7168C424.411 24.627 423.807 23.2793 423.807 21.6738C423.807 19.6465 424.557 18.0938 426.057 17.0156C427.569 15.9258 429.725 15.3809 432.526 15.3809H435.145V14.1328C435.145 13.1484 434.87 12.3633 434.319 11.7773C433.768 11.1797 432.93 10.8809 431.805 10.8809C430.832 10.8809 430.036 11.127 429.414 11.6191C428.793 12.0996 428.483 12.7148 428.483 13.4648H424.211C424.211 12.4219 424.557 11.4492 425.248 10.5469C425.94 9.63281 426.877 8.91797 428.061 8.40234C429.256 7.88672 430.586 7.62891 432.051 7.62891C434.278 7.62891 436.053 8.19141 437.377 9.31641C438.702 10.4297 439.381 12 439.416 14.0273V22.6055C439.416 24.3164 439.657 25.6816 440.137 26.7012V27H435.778ZM431.084 23.9238C431.928 23.9238 432.719 23.7188 433.457 23.3086C434.207 22.8984 434.77 22.3477 435.145 21.6562V18.0703H432.842C431.26 18.0703 430.071 18.3457 429.274 18.8965C428.477 19.4473 428.079 20.2266 428.079 21.2344C428.079 22.0547 428.348 22.7109 428.887 23.2031C429.438 23.6836 430.17 23.9238 431.084 23.9238ZM450.234 27H445.962V7.98047H450.234V27ZM445.699 3.04102C445.699 2.38477 445.904 1.83984 446.314 1.40625C446.736 0.972656 447.334 0.755859 448.107 0.755859C448.88 0.755859 449.478 0.972656 449.9 1.40625C450.322 1.83984 450.533 2.38477 450.533 3.04102C450.533 3.68555 450.322 4.22461 449.9 4.6582C449.478 5.08008 448.88 5.29102 448.107 5.29102C447.334 5.29102 446.736 5.08008 446.314 4.6582C445.904 4.22461 445.699 3.68555 445.699 3.04102ZM466.659 11.8828C466.096 11.7891 465.516 11.7422 464.919 11.7422C462.962 11.7422 461.643 12.4922 460.964 13.9922V27H456.692V7.98047H460.77L460.876 10.1074C461.907 8.45508 463.337 7.62891 465.165 7.62891C465.774 7.62891 466.278 7.71094 466.677 7.875L466.659 11.8828Z" fill="#F3F3F3"/>
</svg>
